<svg width="15" height="17" viewBox="0 0 15 17" fill="none" xmlns="http://www.w3.org/2000/svg">
<path d="M13.9107 2.83333H12.3109H10.433V1.0625C10.433 0.460417 9.98091 0 9.3897 0H5.2165C4.6253 0 4.1732 0.460417 4.1732 1.0625V2.83333H2.29526H0.695534C0.31299 2.83333 0 3.15208 0 3.54167C0 3.93125 0.31299 4.25 0.695534 4.25H1.0433V13.6354C1.0433 15.4771 2.39959 17 4.03409 17H10.8851C12.3457 17 13.5281 15.6542 13.5281 13.9896V4.25H13.8759C14.2584 4.25 14.5714 3.93125 14.5714 3.54167C14.5714 3.15208 14.2932 2.83333 13.9107 2.83333ZM5.56427 1.41667H9.04194V2.47917H5.56427V1.41667ZM12.1718 13.9896C12.1718 14.7688 11.6502 15.5833 10.9199 15.5833H4.03409C3.09512 15.5833 2.43437 14.5917 2.43437 13.6354V4.25H12.1718V13.9896Z" fill="#43484D"/>
<path d="M4.8564 12.9525C5.30164 12.9525 5.66592 12.6544 5.66592 12.2901V6.32909C5.66592 5.9648 5.30164 5.66675 4.8564 5.66675C4.41116 5.66675 4.04688 5.9648 4.04688 6.32909V12.2901C4.04688 12.6544 4.41116 12.9525 4.8564 12.9525Z" fill="#43484D"/>
<path d="M7.28609 12.9525C7.73132 12.9525 8.09561 12.6544 8.09561 12.2901V6.32909C8.09561 5.9648 7.73132 5.66675 7.28609 5.66675C6.84085 5.66675 6.47656 5.9648 6.47656 6.32909V12.2901C6.47656 12.6544 6.84085 12.9525 7.28609 12.9525Z" fill="#43484D"/>
<path d="M9.71382 12.9525C10.1591 12.9525 10.5233 12.6544 10.5233 12.2901V6.32909C10.5233 5.9648 10.1591 5.66675 9.71382 5.66675C9.26858 5.66675 8.9043 5.9648 8.9043 6.32909V12.2901C8.9043 12.6544 9.26858 12.9525 9.71382 12.9525Z" fill="#43484D"/>
</svg>
