<svg width="18" height="15" viewBox="0 0 18 15" fill="none" xmlns="http://www.w3.org/2000/svg">
<path d="M17.2861 3.43031C16.8102 2.96157 16.2405 2.72724 15.577 2.72724H8.30772V2.38634C8.30772 1.73294 8.06967 1.17185 7.5938 0.703219C7.11784 0.234481 6.54808 0 5.88462 0H2.42307C1.75946 0 1.18977 0.234444 0.713891 0.703219C0.237938 1.17185 0 1.73294 0 2.38634V12.6137C0 13.267 0.237938 13.828 0.713891 14.2967C1.18984 14.7655 1.75961 15 2.42307 15H15.5769C16.2405 15 16.8102 14.7656 17.2861 14.2967C17.7622 13.828 18 13.2669 18 12.6137V5.11373C18 4.46029 17.7622 3.89924 17.2861 3.43031Z" fill="#BEBFD8"/>
</svg>
