<?xml version="1.0" encoding="utf-8"?>
<!-- Generator: Adobe Illustrator 21.1.0, SVG Export Plug-In . SVG Version: 6.00 Build 0)  -->
<svg version="1.1" id="Capa_1" xmlns="http://www.w3.org/2000/svg" xmlns:xlink="http://www.w3.org/1999/xlink" x="0px" y="0px"
	 viewBox="0 0 56.1 53" style="enable-background:new 0 0 56.1 53;" xml:space="preserve">
<style type="text/css">
	.st0{fill:#BEBFD8;}
</style>
<g>
	<path class="st0" d="M32.1,52.5H24c-2,0-3.5-1.5-3.5-3.4V3.9c0-1.9,1.5-3.4,3.5-3.4h8.1c2,0,3.5,1.5,3.5,3.4v45.2
		C35.6,51,34.1,52.5,32.1,52.5z M32.1,3.9L31,48V5h-5.8L32.1,3.9z"/>
	<path class="st0" d="M12.1,52.5H4.1c-2,0-3.5-1.5-3.5-3.4V20.9c0-1.9,1.5-3.4,3.5-3.4h8.1c2,0,3.5,1.5,3.5,3.4v28.2
		C15.6,51,14.1,52.5,12.1,52.5z M5.2,48H11V22l0.8,27.2L5.2,48z"/>
	<path class="st0" d="M52.1,52.5H44c-2,0-3.5-1.5-3.5-3.4V31.9c0-1.9,1.5-3.4,3.5-3.4h8.1c2,0,3.5,1.5,3.5,3.4v17.1
		C55.5,51,54,52.5,52.1,52.5z M45.2,47.9h5.8V33.1l3,16.1L45.2,47.9z"/>
</g>
</svg>
