<svg width="47" height="37" viewBox="0 0 47 37" fill="none" xmlns="http://www.w3.org/2000/svg">
<path d="M46.5051 27.008C46.5051 29.792 45.5451 32.048 43.6251 33.776C41.8011 35.408 39.4971 36.224 36.7131 36.224C33.1611 36.224 30.3771 35.12 28.3611 32.912C26.3451 30.608 25.3371 27.584 25.3371 23.84C25.3371 20 25.9131 16.736 27.0651 14.048C28.3131 11.36 29.7531 9.15199 31.3851 7.424C33.1131 5.59999 34.8891 4.20799 36.7131 3.24799C38.5371 2.19199 40.1211 1.424 41.4651 0.943996L46.0731 8.71999C44.1531 9.48799 42.5211 10.736 41.1771 12.464C39.8331 14.096 39.0651 15.872 38.8731 17.792C40.7931 17.792 42.5211 18.656 44.0571 20.384C45.6891 22.016 46.5051 24.224 46.5051 27.008ZM21.5931 27.008C21.5931 29.792 20.6331 32.048 18.7131 33.776C16.8891 35.408 14.5851 36.224 11.8011 36.224C8.24913 36.224 5.46513 35.12 3.44913 32.912C1.43313 30.608 0.425125 27.584 0.425125 23.84C0.425125 20 1.00113 16.736 2.15313 14.048C3.40113 11.36 4.84113 9.15199 6.47313 7.424C8.20113 5.59999 9.97713 4.20799 11.8011 3.24799C13.6251 2.19199 15.2091 1.424 16.5531 0.943996L21.1611 8.71999C19.2411 9.48799 17.6091 10.736 16.2651 12.464C14.9211 14.096 14.1531 15.872 13.9611 17.792C15.8811 17.792 17.6091 18.656 19.1451 20.384C20.7771 22.016 21.5931 24.224 21.5931 27.008Z" fill="#310432"/>
</svg>
