<svg width="45" height="44" viewBox="0 0 45 44" fill="none" xmlns="http://www.w3.org/2000/svg">
<path d="M42.5246 2.75947C40.8749 1.19401 38.8872 0.411133 36.5632 0.411133H8.43756C6.11353 0.411133 4.12586 1.19401 2.47539 2.75947C0.825234 4.32523 0 6.21078 0 8.41563V35.0973C0 37.302 0.825234 39.1877 2.47539 40.7535C4.12586 42.3193 6.11353 43.1021 8.43756 43.1021H36.5628C38.8869 43.1021 40.8745 42.3193 42.5243 40.7535C44.1748 39.1877 45 37.3021 45 35.0973V8.41563C44.9999 6.21078 44.1747 4.32494 42.5246 2.75947ZM38.2912 22.3679H33.1642V40.0165H25.4884V22.3679H21.6505V16.2809H25.4885V12.6399C25.4885 10.0272 26.1332 8.05407 27.4221 6.71981C28.7108 5.38555 30.8396 4.71881 33.8091 4.71881H38.936V10.8056H35.7138C34.6196 10.8056 33.9214 10.986 33.6187 11.3477C33.3161 11.7089 33.1643 12.3435 33.1643 13.2516V16.281H38.9656L38.2912 22.3679Z" fill="white"/>
</svg>
