<svg width="45" height="44" viewBox="0 0 45 44" fill="none" xmlns="http://www.w3.org/2000/svg">
<path d="M26.4789 19.0123C25.5867 17.8263 24.1236 17.0469 22.4821 17.0469C20.8405 17.0469 19.3774 17.8263 18.4852 19.0123C17.9142 19.7917 17.5574 20.7405 17.5574 21.7571C17.5574 24.3325 19.7699 26.4335 22.4821 26.4335C25.1942 26.4335 27.4067 24.3325 27.4067 21.7571C27.4067 20.7405 27.0499 19.7917 26.4789 19.0123Z" fill="white"/>
<path d="M29.5837 19.0479C29.9406 19.7255 30.1547 20.8097 30.1547 21.7584C30.1547 25.7563 26.7289 29.0428 22.4822 29.0428C18.2356 29.0428 14.8098 25.7902 14.8098 21.7584C14.8098 20.7758 15.0239 19.7255 15.3807 19.0479H11.0627V29.9237C11.0627 31.3468 12.3831 32.6004 13.8819 32.6004H31.0825C32.5814 32.6004 33.9017 31.3468 33.9017 29.9237V19.0479H29.5837Z" fill="white"/>
<path d="M32.6169 11.5251H28.4773V16.0318H33.1879V12.1011V11.4912L32.6169 11.5251Z" fill="white"/>
<path d="M33.6876 0.411133H11.2768C5.06741 0.411133 0 5.22234 0 11.1178V32.4294C0 38.2909 5.06741 43.1021 11.2768 43.1021H33.7232C39.9326 43.1021 45 38.2909 45 32.3955V11.1178C44.9643 5.22234 39.8969 0.411133 33.6876 0.411133ZM36.3997 19.0122V29.9221C36.3997 32.7682 34.0801 34.9705 31.0825 34.9705H13.8818C10.8842 34.9705 8.56463 32.7682 8.56463 29.9221V19.0122V13.5911C8.56463 10.7451 10.8842 8.54275 13.8818 8.54275H31.0825C34.0801 8.54275 36.3997 10.7451 36.3997 13.5911V19.0122Z" fill="white"/>
</svg>
