<svg width="45" height="44" viewBox="0 0 45 44" fill="none" xmlns="http://www.w3.org/2000/svg">
<path d="M36.5625 0.411133H8.43747C3.77715 0.411133 0 3.99447 0 8.41567V35.0976C0 39.5188 3.77715 43.1021 8.43747 43.1021H36.5625C41.2229 43.1021 45 39.5187 45 35.0976V8.41567C45.0001 3.99447 41.2229 0.411133 36.5625 0.411133ZM33.6938 16.9646L33.7107 17.645C33.7107 24.5929 28.1391 32.5975 17.9494 32.5975C14.8219 32.5975 11.9109 31.7277 9.45841 30.2361C9.89158 30.2841 10.3331 30.3108 10.7803 30.3108C13.3763 30.3108 15.7641 29.4703 17.6597 28.0615C15.2353 28.0189 13.1906 26.498 12.4847 24.4115C12.825 24.4702 13.1681 24.5022 13.5281 24.5022C14.0344 24.5022 14.5237 24.4409 14.9878 24.3208C12.4537 23.8352 10.544 21.714 10.544 19.1686V19.1019C11.2921 19.4967 12.1443 19.7315 13.0527 19.7609C11.5677 18.8191 10.589 17.2101 10.589 15.3878C10.589 14.4246 10.8618 13.5227 11.3371 12.7463C14.068 15.9268 18.1518 18.0186 22.7559 18.2374C22.6602 17.8531 22.6125 17.4503 22.6125 17.0394C22.6125 14.1391 25.0931 11.7857 28.1531 11.7857C29.745 11.7857 31.185 12.4234 32.1974 13.4453C33.4574 13.2078 34.6443 12.7702 35.7159 12.1699C35.3024 13.3973 34.425 14.4272 33.2803 15.0782C34.3969 14.9528 35.4684 14.6672 36.4612 14.251C35.7188 15.3023 34.7766 16.2282 33.6938 16.9646Z" fill="white"/>
</svg>
