<svg  width="20" height="20" viewBox="0 0 20 20">

<path class="cls-1" fill:'#fff' d="M15,9.88a4.48,4.48,0,0,0,1.7-3.47A4.42,4.42,0,1,0,9.61,9.88c-2.79.68-4.75,2.38-4.75,4.46v2.25C4.86,16.93,5.2,18,6,18H18.85c.71,0,1-.78,1-1.43V14.34C19.8,12.26,17.86,10.56,15,9.88ZM12.33,3.34A3.06,3.06,0,1,1,9.27,6.41,3,3,0,0,1,12.33,3.34Zm6.11,13.21v.07H6.25s0-.07,0-.1V14.31c0-1.84,2.79-3.4,6.11-3.4s6.11,1.57,6.11,3.4Z"/>
<path class="cls-1" d="M5.83,6.21H4V4.16a.63.63,0,1,0-1.25,0V6.21H.83a.63.63,0,0,0,0,1.26H2.7V9.37A.63.63,0,1,0,4,9.37V7.47H5.83a.63.63,0,0,0,0-1.26Z"/>
</svg>
