<svg width="18" height="20" viewBox="0 0 18 20" fill="none" xmlns="http://www.w3.org/2000/svg">
<path d="M9.51377 19.5C9.29045 19.5 9.02246 19.4069 8.88846 19.2206L0.714767 10.4657C0.357447 10.0931 0.357447 9.48776 0.714767 9.16178C1.07209 8.78923 1.65273 8.78923 1.96539 9.16178L9.51377 17.2181L15.8115 10.652L8.30782 2.54903C7.9505 2.17648 7.9505 1.57109 8.30782 1.24511C8.66514 0.872561 9.24578 0.872561 9.55844 1.24511L17.7321 10C18.0895 10.3726 18.0895 10.9314 17.7321 11.3039L10.1391 19.2206C9.96043 19.4069 9.7371 19.5 9.51377 19.5Z" fill="white"/>
<path d="M1.33995 10.7451C0.848635 10.7451 0.491315 10.3726 0.44665 9.86029L0 1.47794C0 1.19853 0.08933 0.965686 0.26799 0.779412C0.44665 0.593137 0.669975 0.5 0.937965 0.5L8.97767 0.965686C9.46898 1.01225 9.8263 1.43137 9.8263 1.94363C9.78164 2.45588 9.37965 2.82843 8.88834 2.82843L1.83127 2.40931L2.23325 9.76716C2.27792 10.2794 1.87593 10.6985 1.38462 10.7451H1.33995Z" fill="white"/>
<path d="M6.29773 8.74264C5.94041 8.74264 5.62775 8.60293 5.35976 8.37009C5.13644 8.13724 5.00244 7.76469 5.00244 7.43871C5.00244 7.06616 5.13644 6.69361 5.40443 6.4142C5.94041 5.85538 6.83371 5.85538 7.32502 6.36763C7.81634 6.87989 7.81634 7.76469 7.28036 8.37009C7.01237 8.60293 6.65505 8.74264 6.29773 8.74264ZM6.65505 7.06616L6.0744 7.67156C6.25306 7.85783 6.52105 7.9044 6.69971 7.71812C6.78904 7.62499 6.83371 7.53185 6.83371 7.43871C6.78904 7.29901 6.74438 7.1593 6.65505 7.06616ZM6.29773 6.87989C6.16373 6.87989 6.0744 6.92646 6.02974 7.0196C5.89574 7.1593 5.89574 7.48528 6.0744 7.67156L6.65505 7.06616C6.56572 6.92646 6.43172 6.87989 6.29773 6.87989Z" fill="white"/>
</svg>
