<svg width="19" height="20" viewBox="0 0 19 20" fill="none" xmlns="http://www.w3.org/2000/svg">
<path d="M9.4902 13.4502C7.57381 13.4502 6.00586 11.899 6.00586 10.003C6.00586 8.107 7.57381 6.55574 9.4902 6.55574C11.4066 6.55574 12.9746 8.107 12.9746 10.003C12.9746 11.899 11.4501 13.4502 9.4902 13.4502ZM9.4902 8.27936C8.53201 8.27936 7.74803 9.05499 7.74803 10.003C7.74803 10.951 8.53201 11.7266 9.4902 11.7266C10.4484 11.7266 11.2324 10.951 11.2324 10.003C11.2324 9.05499 10.492 8.27936 9.4902 8.27936Z" fill="white"/>
<path d="M11.3628 20H7.87847C7.00739 20 6.48473 18.9658 6.48473 18.4056V17.3715C6.00564 17.1991 5.57009 16.9406 5.09099 16.6389L4.26346 17.2422C3.95858 17.4577 3.61015 17.5438 3.26171 17.4577C2.91328 17.4146 2.6084 17.1991 2.43418 16.9406L0.430682 14.1397C0.212911 13.838 0.169356 13.5364 0.212911 13.1917C0.256465 12.847 0.474237 12.5453 0.735563 12.373L1.60665 11.7697C1.43243 11.1233 1.34532 10.477 1.34532 9.78754C1.34532 9.14118 1.43243 8.53791 1.56309 7.93464L0.561345 7.2452C-0.0484153 6.81429 -0.179078 6.03866 0.256465 5.43539L2.25996 2.59142C2.43418 2.33287 2.73906 2.16051 3.04394 2.07433C3.39238 2.03124 3.74081 2.07433 4.00214 2.28978L4.96033 2.93614C5.43943 2.59142 5.91853 2.33287 6.44118 2.16051V0.178345H11.1015C11.4935 -0.0801987 11.8419 0.00598244 11.9726 0.049073C12.3646 0.221435 12.5388 0.523069 12.5388 1.04016V2.16051C13.0614 2.37596 13.5841 2.63451 14.0632 2.93614L14.9343 2.33287C15.5005 1.94506 16.328 2.07433 16.7636 2.63451L18.7671 5.43539C18.9848 5.69394 19.0284 6.03866 18.9848 6.38338C18.9413 6.72811 18.7235 7.02974 18.4622 7.2452L17.6346 7.84846C17.8089 8.49482 17.8524 9.14118 17.8524 9.78754C17.8524 10.4339 17.7653 11.0803 17.6346 11.7266L18.3315 12.2006C18.9413 12.5884 19.0719 13.4071 18.6364 14.0104L16.6764 16.8113C16.4587 17.1129 16.1973 17.2853 15.8489 17.3284C15.5005 17.3715 15.152 17.3284 14.8472 17.1129L14.0632 16.5958C13.5841 16.8975 13.0614 17.156 12.5388 17.3715V18.4056C12.5823 19.2244 12.1468 20 11.3628 20ZM8.22691 18.2764H10.8402V16.1218L11.4499 15.9495C12.2339 15.734 12.9308 15.3462 13.5405 14.8722L14.0632 14.4844L15.5005 15.4755L16.9813 13.3641L15.5876 12.4161L15.8054 11.8128C16.0231 11.1664 16.1538 10.477 16.1538 9.78754C16.1538 9.09809 16.0231 8.40864 15.8054 7.76228L15.5876 7.15901L17.112 6.08175L15.5876 3.97031L14.0196 5.04758L13.497 4.65976C12.8872 4.18577 12.1468 3.84104 11.4064 3.5825L10.7966 3.41014V1.90197H8.18335V3.36705L7.57359 3.53941C6.83317 3.75486 6.17985 4.14268 5.48298 4.65976L4.96033 5.04758L3.39238 3.97031L1.91153 6.08175L3.56659 7.2452L3.39238 7.84846C3.1746 8.49482 3.0875 9.14118 3.0875 9.78754C3.0875 10.477 3.21816 11.1664 3.43593 11.8559L3.6537 12.4592L2.1293 13.5364L3.6537 15.6479L5.13455 14.5706L5.6572 14.9584C6.35407 15.4755 6.96383 15.7771 7.61715 15.9926L8.22691 16.1649V18.2764Z" fill="white"/>
</svg>
