<svg width="16" height="19" viewBox="0 0 16 19" fill="none" xmlns="http://www.w3.org/2000/svg">
<path d="M14.7083 18.5H1.16667C0.541667 18.5 0 17.9913 0 17.4043V1.47826C0 0.930435 0.458333 0.5 1.04167 0.5H9.375C9.83333 0.5 10.2083 0.852174 10.2083 1.28261C10.2083 1.71304 9.83333 2.06522 9.375 2.06522H1.66667V16.9348H14.3333V6.33043C14.3333 5.9 14.7083 5.54783 15.1667 5.54783C15.625 5.54783 16 5.9 16 6.33043V17.287C16 17.9522 15.4167 18.5 14.7083 18.5Z" fill="white"/>
<path d="M9.91683 7.07389C9.62516 7.07389 9.37516 6.9565 9.16683 6.79998C8.9585 6.60433 8.8335 6.29129 8.8335 5.97824V1.67389H9.66683H8.8335C8.8335 1.51737 8.8335 1.00868 9.37516 0.773894C9.5835 0.695634 9.9585 0.617373 10.4168 0.969547L15.5002 5.46955C15.8335 5.74346 15.9168 6.13476 15.7918 6.48694C15.6668 6.83911 15.2918 7.07389 14.8335 7.07389H9.91683ZM10.5002 3.19998V5.46955H13.0835L10.5002 3.19998Z" fill="white"/>
</svg>
