<svg width="30" height="20" viewBox="0 0 30 20" fill="none" xmlns="http://www.w3.org/2000/svg">
<path d="M26.7368 5.46154H5.26316C4.56842 5.46154 4 4.90769 4 4.23077C4 3.55385 4.56842 3 5.26316 3H26.7368C27.4316 3 28 3.55385 28 4.23077C28 4.90769 27.4316 5.46154 26.7368 5.46154Z" fill="#310432"/>
<path d="M26.7368 12.2308H5.26316C4.56842 12.2308 4 11.6769 4 11C4 10.3231 4.56842 9.76923 5.26316 9.76923H26.7368C27.4316 9.76923 28 10.3231 28 11C28 11.6769 27.4316 12.2308 26.7368 12.2308Z" fill="#310432"/>
<path d="M26.7368 19H5.26316C4.56842 19 4 18.4461 4 17.7692C4 17.0923 4.56842 16.5385 5.26316 16.5385H26.7368C27.4316 16.5385 28 17.0923 28 17.7692C28 18.4461 27.4316 19 26.7368 19Z" fill="#310432"/>
</svg>
