<svg width="16" height="19" viewBox="0 0 16 19" fill="none" xmlns="http://www.w3.org/2000/svg">
<path d="M5.19897 18.5H1.16053C0.520775 18.5 0.000976562 18.0297 0.000976562 17.4417V7.52557H1.60036V16.9322H5.19897V18.5Z" fill="white"/>
<path d="M14.8353 18.5H10.397V16.9322H14.3954V7.91754H15.9948V17.4418C15.9948 18.0297 15.475 18.5 14.8353 18.5Z" fill="white"/>
<path d="M15.1951 8.66222C14.9951 8.66222 14.7952 8.58383 14.6353 8.46625L7.99785 2.31274L1.32043 8.27028C1.00055 8.54464 0.480754 8.54464 0.200862 8.23108C-0.0790295 7.91753 -0.0790295 7.408 0.280831 7.13364L7.47805 0.70577C7.79792 0.43141 8.27774 0.43141 8.55763 0.70577L15.7548 7.32961C16.0747 7.64317 16.0747 8.1135 15.7948 8.42705C15.6349 8.58383 15.395 8.66222 15.1951 8.66222Z" fill="white"/>
<path d="M11.1966 18.5H9.59722V13.4047H6.39845V18.5H4.79907V12.6209C4.79907 12.1897 5.15893 11.837 5.59876 11.837H10.3969C10.8367 11.837 11.1966 12.1897 11.1966 12.6209V18.5Z" fill="white"/>
</svg>
