<svg xmlns="http://www.w3.org/2000/svg" xmlns:xlink="http://www.w3.org/1999/xlink" viewBox="0 0 228.17 100.21"><defs><style>.cls-1{fill:none;}.cls-2{clip-path:url(#clip-path);}.cls-3{fill:#f66880;}.cls-4{fill:#10e6c5;}.cls-5{fill:#fdc741;}.cls-6{fill:#fff;}</style><clipPath id="clip-path"><path class="cls-1" d="M49.25,0H8.54A8.15,8.15,0,0,0,.39,8.14V95.59a2.13,2.13,0,0,0,.89,1.77,2,2,0,0,0,2.39-.07l24.1-18.53a1.85,1.85,0,0,1,2.25,0l24.1,18.53a2,2,0,0,0,2.27.14,2.13,2.13,0,0,0,1-1.87V8.14A8.15,8.15,0,0,0,49.25,0Z"/></clipPath></defs><title>logo-negativo-svg</title><g id="Capa_1" data-name="Capa 1"><g class="cls-2"><rect class="cls-3" x="31.61" y="11.26" width="62.47" height="9.8" rx="3.73" ry="3.73"/><rect class="cls-4" x="-34.22" y="11.26" width="62.47" height="9.8" rx="3.73" ry="3.73"/><rect class="cls-4" x="52.26" y="40.4" width="78.33" height="12.29" rx="5.17" ry="5.17"/><rect class="cls-3" x="-30.3" y="40.4" width="78.33" height="12.29" rx="5.6" ry="5.6"/><rect class="cls-4" x="25.12" y="24.93" width="72.63" height="11.39" rx="4.33" ry="4.33"/><rect class="cls-3" x="-66.83" y="25.14" width="72.63" height="11.39" rx="4.33" ry="4.33"/><circle class="cls-5" cx="15.48" cy="30.75" r="5.7"/><rect class="cls-4" x="13.66" y="87.72" width="79.61" height="12.49" rx="4.75" ry="4.75"/><rect class="cls-3" x="-60.91" y="87.34" width="79.61" height="12.49" rx="4.75" ry="4.75"/><rect class="cls-4" x="46.81" width="46.53" height="7.3" rx="2.77" ry="2.77"/><rect class="cls-3" x="-28.38" y="0.09" width="62.81" height="7.3" rx="2.77" ry="2.77"/><circle class="cls-5" cx="40.63" cy="3.68" r="3.65"/><rect class="cls-3" x="46.45" y="56.56" width="101.86" height="15.98" rx="6.07" ry="6.07"/><rect class="cls-4" x="-83" y="56.9" width="101.86" height="15.98" rx="6.07" ry="6.07"/><circle class="cls-5" cx="32.93" cy="64.72" r="7.99"/><circle class="cls-5" cx="15.34" cy="80.11" r="3.31"/><rect class="cls-3" x="22.81" y="76.75" width="61.44" height="6.72" rx="3.36" ry="3.36"/><path class="cls-4" d="M-49.7,76.75H5a3.36,3.36,0,0,1,3.36,3.36v0A3.37,3.37,0,0,1,5,83.47H-49.7a3.36,3.36,0,0,1-3.36-3.36v0A3.36,3.36,0,0,1-49.7,76.75Z"/><path class="cls-4" d="M84.6,82.25a1.5,1.5,0,0,0,0-3,1.5,1.5,0,0,0,0,3Z"/></g><path class="cls-6" d="M112,33a4.87,4.87,0,0,1,2.67-.79,5.64,5.64,0,0,1,3.75,1.39A4.2,4.2,0,0,1,120.1,37a4.83,4.83,0,0,1-.53,2.18l-13.5,27.67a5.42,5.42,0,0,1-2.25,2.52,6.48,6.48,0,0,1-6.45,0,5.85,5.85,0,0,1-2.32-2.52L81.55,39.15a5.15,5.15,0,0,1-.45-2,4.28,4.28,0,0,1,1.76-3.45,6.1,6.1,0,0,1,3.94-1.42,5.27,5.27,0,0,1,2.85.79,5.37,5.37,0,0,1,2,2.36l9.23,20.17,9.15-20.17A5.5,5.5,0,0,1,112,33Z"/><path class="cls-6" d="M126,24.64a5.32,5.32,0,0,1-1.73-4.17A5.17,5.17,0,0,1,126,16.35a6.94,6.94,0,0,1,4.72-1.5,6.87,6.87,0,0,1,4.69,1.54,5.15,5.15,0,0,1,1.76,4.08,5.31,5.31,0,0,1-1.72,4.17,8.06,8.06,0,0,1-9.45,0Zm.63,44.21a4.91,4.91,0,0,1-1.61-4V37.5a4.85,4.85,0,0,1,1.65-4,6.19,6.19,0,0,1,4-1.35,6,6,0,0,1,4,1.35,4.89,4.89,0,0,1,1.62,4V64.87a4.89,4.89,0,0,1-1.62,4,6,6,0,0,1-4,1.35A6.17,6.17,0,0,1,126.58,68.85Z"/><path class="cls-6" d="M176.27,34.35A15.6,15.6,0,0,1,182,41a23,23,0,0,1,2.06,10A23.56,23.56,0,0,1,182,61.09a16.17,16.17,0,0,1-5.78,6.82,15,15,0,0,1-8.43,2.44,14.69,14.69,0,0,1-6.9-1.61,11.54,11.54,0,0,1-4.73-4.47v.6a5.18,5.18,0,0,1-1.5,3.87,5.57,5.57,0,0,1-4,1.46,5.72,5.72,0,0,1-4.09-1.46A5.12,5.12,0,0,1,145,64.87V21.67a4.75,4.75,0,0,1,1.61-3.75,6.16,6.16,0,0,1,4.24-1.42,5.7,5.7,0,0,1,4,1.35,4.61,4.61,0,0,1,1.5,3.6V37.87A11.2,11.2,0,0,1,161,33.56,14.87,14.87,0,0,1,167.8,32,15.52,15.52,0,0,1,176.27,34.35Zm-5.62,24.56q2.17-2.8,2.17-7.91t-2.17-7.69a7.5,7.5,0,0,0-6.15-2.66,7.39,7.39,0,0,0-6.15,2.74c-1.46,1.82-2.18,4.41-2.18,7.76s.72,6,2.18,7.84a7.41,7.41,0,0,0,6.15,2.73A7.31,7.31,0,0,0,170.65,58.91Z"/><path class="cls-6" d="M198.39,68a16.57,16.57,0,0,1-6.82-6.68,20.55,20.55,0,0,1-2.4-10.16A20.55,20.55,0,0,1,191.57,41a16.29,16.29,0,0,1,6.82-6.64,23.84,23.84,0,0,1,20.56,0A16.35,16.35,0,0,1,225.77,41a20.55,20.55,0,0,1,2.4,10.16,20.55,20.55,0,0,1-2.4,10.16A16.63,16.63,0,0,1,219,68a23.57,23.57,0,0,1-20.56,0Zm18.53-16.84q0-5.32-2.14-7.95a7.42,7.42,0,0,0-6.11-2.63q-8.25,0-8.25,10.58t8.25,10.57Q216.92,61.72,216.92,51.15Z"/></g></svg>