<svg width="18" height="16" viewBox="0 0 18 16" fill="none" xmlns="http://www.w3.org/2000/svg">
<path d="M4.04964 16H1.51772C0.90283 16 0.432617 15.5478 0.432617 14.9565V6.26085C0.432617 5.66955 0.90283 5.21738 1.51772 5.21738H4.04964C4.66453 5.21738 5.13474 5.66955 5.13474 6.26085V14.9565C5.13474 15.5478 4.66453 16 4.04964 16ZM1.87943 14.6087H3.68794V6.60868L3.93262 15.0001L1.87943 14.6087Z" fill="#BEBFD8"/>
<path d="M16.3475 16H13.8156C13.2007 16 12.7305 15.5478 12.7305 14.9565V9.73913C12.7305 9.14782 13.2007 8.69565 13.8156 8.69565H16.3475C16.9624 8.69565 17.4326 9.14782 17.4326 9.73913V14.9565C17.4326 15.5478 16.9624 16 16.3475 16ZM14.1773 14.6087H15.9858V10.087L16.9326 14.9998L14.1773 14.6087Z" fill="#BEBFD8"/>
<path d="M10.1986 16H7.66665C7.05176 16 6.58154 15.5478 6.58154 14.9565V1.04348C6.58154 0.452174 7.05176 0 7.66665 0H10.1986C10.8135 0 11.2837 0.452174 11.2837 1.04348V14.9565C11.2837 15.5478 10.8135 16 10.1986 16ZM10.1986 1.04348L9.83686 14.6087V1.3913H8.02835L10.1986 1.04348Z" fill="#BEBFD8"/>
</svg>
