<svg width="17" height="14" viewBox="0 0 17 14" fill="none" xmlns="http://www.w3.org/2000/svg">
<path d="M15.798 3.09616C15.375 2.67309 14.8686 2.46159 14.2788 2.46159H7.81726V2.1539C7.81726 1.56416 7.60566 1.05773 7.18266 0.634765C6.75959 0.211697 6.25313 6.10352e-05 5.66339 6.10352e-05H2.58646C1.99658 6.10352e-05 1.49019 0.211663 1.06719 0.634765C0.644118 1.05773 0.432617 1.56416 0.432617 2.1539V11.3848C0.432617 11.9744 0.644118 12.4808 1.06719 12.9038C1.49026 13.327 1.99671 13.5386 2.58646 13.5386H14.2788C14.8686 13.5386 15.375 13.327 15.798 12.9038C16.2212 12.4808 16.4326 11.9744 16.4326 11.3848V4.61556C16.4327 4.02578 16.2213 3.51939 15.798 3.09616Z" fill="#BEBFD8"/>
<path fill-rule="evenodd" clip-rule="evenodd" d="M8.43249 4.78258C7.98826 4.78258 7.62814 5.1427 7.62814 5.58693V7.19563H6.01944C5.57521 7.19563 5.21509 7.55575 5.21509 7.99998C5.21509 8.44421 5.57521 8.80433 6.01944 8.80433H7.62814V10.413C7.62814 10.8573 7.98826 11.2174 8.43249 11.2174C8.87672 11.2174 9.23684 10.8573 9.23684 10.413V8.80433H10.8455C11.2898 8.80433 11.6499 8.44421 11.6499 7.99998C11.6499 7.55575 11.2898 7.19563 10.8455 7.19563H9.23684V5.58693C9.23684 5.1427 8.87672 4.78258 8.43249 4.78258Z" fill="#FAFAFA"/>
</svg>
