<svg width="17" height="17" viewBox="0 0 17 17" fill="none" xmlns="http://www.w3.org/2000/svg">
<path d="M3.61702 16.5H1.08511C0.470213 16.5 0 16.0478 0 15.4565V6.76085C0 6.16955 0.470213 5.71738 1.08511 5.71738H3.61702C4.23191 5.71738 4.70213 6.16955 4.70213 6.76085V15.4565C4.70213 16.0478 4.23191 16.5 3.61702 16.5ZM1.44681 15.1087H3.25532V7.10868H1.44681V15.1087Z" fill="white"/>
<path d="M15.9149 16.5H13.383C12.7681 16.5 12.2979 16.0478 12.2979 15.4565V10.2391C12.2979 9.64782 12.7681 9.19565 13.383 9.19565H15.9149C16.5298 9.19565 17 9.64782 17 10.2391V15.4565C17 16.0478 16.5298 16.5 15.9149 16.5ZM13.7447 15.1087H15.5532V10.587H13.7447V15.1087Z" fill="white"/>
<path d="M9.76595 16.5H7.23403C6.61914 16.5 6.14893 16.0478 6.14893 15.4565V1.54348C6.14893 0.952174 6.61914 0.5 7.23403 0.5H9.76595C10.3808 0.5 10.8511 0.952174 10.8511 1.54348V15.4565C10.8511 16.0478 10.3808 16.5 9.76595 16.5ZM7.59573 15.1087H9.40424V1.8913H7.59573V15.1087Z" fill="white"/>
</svg>
