<svg width="17" height="17" viewBox="0 0 17 17" fill="none" xmlns="http://www.w3.org/2000/svg">
<path d="M0.377905 14.518L3.8821 11.22C3.03762 10.0727 2.61517 8.79357 2.61517 7.38345C2.61517 6.46678 2.80425 5.5901 3.1824 4.75359C3.56031 3.91694 4.07118 3.19582 4.71481 2.59004C5.35844 1.98426 6.12452 1.50343 7.01327 1.14772C7.9023 0.791904 8.8337 0.614014 9.80764 0.614014C10.7815 0.614014 11.713 0.791904 12.6018 1.14772C13.4907 1.50343 14.2569 1.98426 14.9005 2.59004C15.5442 3.19582 16.055 3.91708 16.433 4.75359C16.811 5.5902 17 6.46678 17 7.38345C17 8.30004 16.811 9.17643 16.433 10.0132C16.055 10.8497 15.5442 11.5707 14.9005 12.1765C14.2569 12.7825 13.4905 13.2631 12.6018 13.619C11.7129 13.9748 10.7815 14.1526 9.80764 14.1526C8.30908 14.1526 6.95029 13.755 5.73116 12.9602L2.22696 16.2486C1.98177 16.4922 1.67568 16.614 1.30758 16.614C0.95344 16.614 0.646778 16.4922 0.388174 16.2486C0.129463 16.0051 0 15.7166 0 15.3833C-0.000106812 15.0438 0.125885 14.7552 0.377905 14.518ZM6.57414 10.4264C7.46975 11.2695 8.5475 11.691 9.80764 11.691C11.0676 11.691 12.1453 11.2694 13.041 10.4264C13.9367 9.5835 14.3845 8.56927 14.3845 7.38325C14.3845 6.19742 13.9366 5.18289 13.041 4.34005C12.1455 3.497 11.0676 3.07555 9.80764 3.07555C8.54765 3.07555 7.46989 3.49717 6.57414 4.34005C5.67838 5.18289 5.23055 6.19742 5.23055 7.38325C5.23055 8.56927 5.67852 9.5835 6.57414 10.4264Z" fill="#808080"/>
</svg>
