<svg width="16" height="16" viewBox="0 0 16 16" fill="none" xmlns="http://www.w3.org/2000/svg">
<path d="M15.7307 10.8318C15.5515 10.6524 15.3334 10.5628 15.0769 10.5628H10.9712C10.8367 10.9214 10.6106 11.2161 10.2934 11.4467C9.97593 11.6773 9.62186 11.7926 9.23092 11.7926H6.76915C6.37817 11.7926 6.02397 11.6772 5.70675 11.4467C5.3894 11.2161 5.16351 10.9215 5.0289 10.5628H0.923065C0.666703 10.5628 0.448768 10.6524 0.269227 10.8318C0.08972 11.011 0 11.2288 0 11.4851V14.56C0 14.8161 0.08972 15.0342 0.269227 15.2133C0.448735 15.3926 0.66667 15.4822 0.923065 15.4822H15.0771C15.3334 15.4822 15.5515 15.3926 15.7308 15.2133C15.9103 15.0339 16 14.8161 16 14.56V11.4851C16 11.2288 15.9103 11.0113 15.7307 10.8318ZM12.1252 14.0699C12.0032 14.1917 11.8589 14.2526 11.6923 14.2526C11.5256 14.2526 11.3815 14.1917 11.2596 14.0699C11.1379 13.9483 11.077 13.8041 11.077 13.6375C11.077 13.471 11.1379 13.3267 11.2596 13.2052C11.3815 13.0836 11.5256 13.0225 11.6923 13.0225C11.8589 13.0225 12.0032 13.0835 12.1252 13.2052C12.2468 13.3267 12.3077 13.471 12.3077 13.6375C12.3077 13.8041 12.2468 13.9483 12.1252 14.0699ZM14.5865 14.0699C14.4648 14.1917 14.3205 14.2526 14.1538 14.2526C13.9872 14.2526 13.843 14.1917 13.7212 14.0699C13.5995 13.9483 13.5386 13.8041 13.5386 13.6375C13.5386 13.471 13.5995 13.3267 13.7212 13.2052C13.843 13.0836 13.9872 13.0225 14.1538 13.0225C14.3205 13.0225 14.4648 13.0835 14.5865 13.2052C14.7084 13.3267 14.7693 13.471 14.7693 13.6375C14.7693 13.8041 14.7085 13.9483 14.5865 14.0699Z" fill="#BEBFD8"/>
<path d="M3.69232 5.64281H6.15386V9.94775C6.15386 10.1143 6.21478 10.2585 6.33653 10.3801C6.45835 10.5017 6.60259 10.5628 6.7692 10.5628H9.23098C9.39762 10.5628 9.54173 10.5018 9.66365 10.3801C9.78536 10.2585 9.84622 10.1143 9.84622 9.94775V5.64281H12.3078C12.5772 5.64281 12.7663 5.51461 12.8751 5.25846C12.9841 5.00866 12.9392 4.78761 12.7405 4.5954L8.43269 0.290529C8.31721 0.168794 8.17316 0.10791 8.00002 0.10791C7.82705 0.10791 7.6828 0.168794 7.56735 0.290529L3.25968 4.5954C3.06091 4.78761 3.01608 5.00853 3.125 5.25846C3.23409 5.51475 3.42316 5.64281 3.69232 5.64281Z" fill="#BEBFD8"/>
</svg>
