<svg id="icons" xmlns="http://www.w3.org/2000/svg" viewBox="0 0 34.59 34.5"><defs><style>.cls-1{fill:#f1f1f1;}.cls-2{fill:gray;}</style></defs><title>toggle-icon</title><circle class="cls-1" cx="17.13" cy="17.27" r="17"/><path class="cls-2" d="M25.63,12.42h-17a1.08,1.08,0,0,1,0-2.15h17a1.08,1.08,0,0,1,0,2.15Z"/><path class="cls-2" d="M25.63,18.35h-17a1.08,1.08,0,0,1,0-2.16h17a1.08,1.08,0,0,1,0,2.16Z"/><path class="cls-2" d="M25.63,24.27h-17a1.08,1.08,0,0,1,0-2.15h17a1.08,1.08,0,0,1,0,2.15Z"/><circle class="cls-1" cx="17.34" cy="17.27" r="17"/><path class="cls-2" d="M25.18,12.42H14c-.37,0-.66-.48-.66-1.07s.29-1.08.66-1.08H25.18c.36,0,.66.49.66,1.08S25.54,12.42,25.18,12.42Z"/><path class="cls-2" d="M25.18,18.35H14c-.37,0-.66-.49-.66-1.08s.29-1.08.66-1.08H25.18c.36,0,.66.49.66,1.08S25.54,18.35,25.18,18.35Z"/><path class="cls-2" d="M25.18,24.27H14c-.37,0-.66-.48-.66-1.08s.29-1.07.66-1.07H25.18c.36,0,.66.48.66,1.07S25.54,24.27,25.18,24.27Z"/><path class="cls-2" d="M11.71,12.42H9.47a2.35,2.35,0,0,1-.13-1.07,2.41,2.41,0,0,1,.13-1.08h2.24a2.41,2.41,0,0,1,.13,1.08A2.35,2.35,0,0,1,11.71,12.42Z"/><path class="cls-2" d="M11.71,18.35H9.47a2.41,2.41,0,0,1-.13-1.08,2.41,2.41,0,0,1,.13-1.08h2.24a2.41,2.41,0,0,1,.13,1.08A2.41,2.41,0,0,1,11.71,18.35Z"/><path class="cls-2" d="M11.71,24.27H9.47a2.37,2.37,0,0,1-.13-1.08,2.35,2.35,0,0,1,.13-1.07h2.24a2.35,2.35,0,0,1,.13,1.07A2.37,2.37,0,0,1,11.71,24.27Z"/></svg>