<?xml version="1.0" encoding="utf-8"?>
<!-- Generator: Adobe Illustrator 21.1.0, SVG Export Plug-In . SVG Version: 6.00 Build 0)  -->
<svg version="1.1" id="icons" xmlns="http://www.w3.org/2000/svg" xmlns:xlink="http://www.w3.org/1999/xlink" x="0px" y="0px"
	 viewBox="0 0 34.6 34.5" style="enable-background:new 0 0 34.6 34.5;" xml:space="preserve">
<style type="text/css">
	.st0{fill:#F1F1F1;}
	.st1{fill:#808080;}
</style>
<title>toggle-icon</title>
<circle class="st0" cx="17.3" cy="17.3" r="17"/>
<g>
	<path class="st1" d="M15.6,16.6h-5.2c-0.5,0-0.9-0.4-0.9-0.9v-5.2c0-0.5,0.4-0.9,0.9-0.9h5.2c0.5,0,0.9,0.4,0.9,0.9v5.2
		C16.5,16.2,16.1,16.6,15.6,16.6z"/>
	<path class="st1" d="M24.2,16.6H19c-0.5,0-0.9-0.4-0.9-0.9v-5.2c0-0.5,0.4-0.9,0.9-0.9h5.2c0.5,0,0.9,0.4,0.9,0.9v5.2
		C25.2,16.2,24.7,16.6,24.2,16.6z"/>
	<path class="st1" d="M24.2,25H19c-0.5,0-0.9-0.4-0.9-0.9v-5.2c0-0.5,0.4-0.9,0.9-0.9h5.2c0.5,0,0.9,0.4,0.9,0.9V24
		C25.2,24.6,24.7,25,24.2,25z"/>
	<path class="st1" d="M15.6,25h-5.2c-0.5,0-0.9-0.4-0.9-0.9v-5.2c0-0.5,0.4-0.9,0.9-0.9h5.2c0.5,0,0.9,0.4,0.9,0.9V24
		C16.5,24.6,16.1,25,15.6,25z"/>
</g>
</svg>
